<svg width="44" height="43" viewBox="0 0 44 43" fill="none" xmlns="http://www.w3.org/2000/svg">
<rect x="0.5" width="43" height="43" rx="5" fill="#276AFF"/>
<path fill-rule="evenodd" clip-rule="evenodd" d="M19.0722 11.0475C20.0262 12.3488 20.5473 14.0435 20.6833 15.2444C20.5595 15.369 20.4481 15.509 20.3502 15.6591C19.9825 16.2233 19.7691 16.9771 19.7691 17.7878C19.7691 18.0899 19.7987 18.3841 19.855 18.6636C19.76 18.5066 19.6688 18.335 19.582 18.1481C19.2316 17.3934 18.5194 16.5377 17.6533 15.679C16.7786 14.8118 15.7137 13.9097 14.62 13.0627C12.4395 11.3741 10.1024 9.87279 8.87309 9.29146C7.97754 8.86796 7.03171 9.25252 6.51652 10.0378C5.99852 10.8274 5.90167 12.004 6.50892 13.2894C6.86105 14.0348 7.45871 15.443 7.94544 17.0539C8.43432 18.6719 8.79963 20.457 8.71509 21.9703C8.66424 22.8806 8.97013 23.5205 9.55413 23.8791C10.0929 24.2099 10.7825 24.2439 11.3901 24.1858C11.6875 24.1574 11.9837 24.105 12.2616 24.0422C11.901 24.4011 11.4772 24.8266 11.0298 25.295C9.88509 26.4933 10.0706 28.0559 10.4965 29.2685C10.8613 30.307 11.4463 31.2138 11.7011 31.6088C11.7455 31.6776 11.7799 31.7309 11.8013 31.7667C12.1177 32.294 12.578 33.0119 13.3256 33.5935C14.0828 34.1826 15.1122 34.6151 16.5377 34.6151C17.3917 34.6151 18.1661 34.0639 18.8172 33.3855C19.482 32.6926 20.098 31.7826 20.6325 30.8964C21.0443 30.2136 21.4175 29.528 21.7308 28.9525C21.8245 28.7804 21.9129 28.618 21.9953 28.4686C22.1245 28.2344 22.237 28.0357 22.3331 27.8775C22.3965 28.0488 22.4656 28.2619 22.5429 28.51C22.5735 28.6081 22.6051 28.711 22.6379 28.8176L22.6381 28.8181C22.8342 29.4559 23.0702 30.2235 23.3603 30.8799C23.787 31.8456 24.8263 32.7723 25.8967 33.4452C26.4412 33.7875 27.0138 34.0769 27.5545 34.2819C28.0889 34.4845 28.6193 34.6151 29.0716 34.6151C30.2383 34.6151 31.2382 34.3128 32.0941 33.6029C32.938 32.903 33.6052 31.837 34.1763 30.3789C34.9152 28.4925 33.9936 26.7163 33.0332 25.4616C32.5449 24.8238 32.0213 24.2871 31.6394 23.9006L31.5489 23.809C31.9522 23.786 32.4888 23.7446 33.0305 23.6082C33.6035 23.4638 34.2158 23.2051 34.6924 22.7176C35.1782 22.2205 35.4865 21.5228 35.509 20.5761C35.5761 17.7478 36.0349 16.5816 36.6486 15.0219C36.9437 14.2719 37.2746 13.4307 37.6149 12.2701C37.8818 11.3601 37.8683 10.63 37.5447 10.0988C37.2133 9.555 36.636 9.34527 36.0752 9.29906C35.5133 9.25276 34.8955 9.36086 34.3476 9.52678C33.798 9.69319 33.2819 9.92903 32.9195 10.1681C32.4698 10.4648 29.1716 12.7269 27.5502 14.4839C26.139 16.0132 25.7761 16.515 24.9867 17.6064L24.9864 17.6068C24.8816 17.7517 24.7693 17.9069 24.6461 18.0763C24.4271 18.3774 24.2083 18.6392 23.9917 18.8647C24.0774 18.5267 24.1232 18.1633 24.1232 17.7878C24.1232 16.9771 23.9098 16.2233 23.5421 15.6591C23.4149 15.464 23.2646 15.2858 23.0942 15.1365C23.2484 13.9435 23.7665 12.3103 24.6923 11.0475C25.6578 9.73059 27.0223 8.86263 28.8792 9.21869C29.113 9.26351 29.3389 9.11077 29.3838 8.87753C29.4288 8.64428 29.2757 8.41887 29.0419 8.37405C26.7584 7.93618 25.0911 9.04671 23.9966 10.5397C23.0495 11.8314 22.4983 13.4435 22.2856 14.7152C22.1763 14.6915 22.063 14.679 21.9462 14.679C21.7849 14.679 21.6306 14.7029 21.4841 14.7468C21.2753 13.4703 20.7228 11.8422 19.7679 10.5397C18.6733 9.04671 17.0061 7.93618 14.7225 8.37405C14.4888 8.41887 14.3357 8.64428 14.3806 8.87753C14.4256 9.11077 14.6515 9.26351 14.8852 9.21869C16.7421 8.86263 18.1067 9.73059 19.0722 11.0475ZM22.5402 20.7829C23.5148 20.5308 24.4775 19.7722 25.3437 18.5815C25.4686 18.4099 25.5818 18.2534 25.687 18.1078C26.4652 17.0318 26.8073 16.5587 28.1844 15.0665C29.725 13.397 32.938 11.187 33.3949 10.8856C33.6742 10.7013 34.1109 10.4973 34.5979 10.3498C35.0865 10.2018 35.5891 10.122 36.0042 10.1562C36.4203 10.1905 36.6765 10.3297 36.8081 10.5456C36.9474 10.7743 37.0262 11.2147 36.7876 12.0286C36.4841 13.0635 36.1719 13.861 35.8828 14.5995C35.2441 16.2312 34.718 17.5752 34.6472 20.5557C34.6292 21.3126 34.3909 21.7941 34.0752 22.117C33.7503 22.4495 33.3062 22.6516 32.8195 22.7742C32.3332 22.8967 31.8376 22.9319 31.4324 22.954C31.3999 22.9558 31.3674 22.9575 31.3351 22.9592L31.3347 22.9592C31.1758 22.9676 31.023 22.9756 30.9046 22.989C30.8343 22.997 30.75 23.0094 30.6721 23.0338C30.6328 23.0461 30.5779 23.0666 30.5222 23.1023C30.4668 23.1378 30.3865 23.2038 30.3369 23.3152C30.2733 23.4581 30.2998 23.5878 30.3183 23.6495C30.3383 23.7161 30.3687 23.7704 30.3908 23.8059C30.4359 23.8784 30.4965 23.9512 30.5536 24.0154C30.6567 24.1314 30.8014 24.2777 30.9612 24.4393L30.9613 24.4394C30.9825 24.4608 31.0039 24.4824 31.0255 24.5043C31.4053 24.8888 31.8955 25.3924 32.3482 25.9837C33.2695 27.1874 33.9378 28.625 33.3734 30.0658C32.8285 31.4569 32.2293 32.3723 31.5431 32.9415C30.8691 33.5005 30.0753 33.755 29.0716 33.755C28.7671 33.755 28.3481 33.6626 27.8607 33.4779C27.3796 33.2954 26.858 33.033 26.3562 32.7175C25.3337 32.0748 24.4713 31.2622 24.149 30.5329C23.8814 29.9273 23.6624 29.216 23.465 28.5749C23.4315 28.4658 23.3985 28.3587 23.366 28.2546C23.2576 27.9068 23.1512 27.5802 23.0455 27.3384C22.9936 27.2196 22.9312 27.0959 22.8546 26.9955C22.7935 26.9154 22.6367 26.7342 22.3775 26.7342C22.2449 26.7342 22.1439 26.787 22.0879 26.8231C22.0281 26.8616 21.9791 26.9073 21.9417 26.9465C21.8668 27.025 21.7937 27.1249 21.7251 27.2278C21.5859 27.4367 21.4212 27.7257 21.2401 28.0539C21.1539 28.2103 21.0629 28.3774 20.9674 28.5529C20.6552 29.1262 20.2948 29.7882 19.8939 30.4529C19.3698 31.3219 18.7928 32.1671 18.1945 32.7906C17.5824 33.4286 17.0234 33.755 16.5377 33.755C15.304 33.755 14.4613 33.3864 13.8556 32.9152C13.2402 32.4364 12.8468 31.8347 12.5409 31.3249C12.5101 31.2735 12.4662 31.2051 12.4127 31.1217C12.1448 30.7041 11.6353 29.9102 11.31 28.9841C10.9174 27.8662 10.8531 26.7266 11.6538 25.8884C12.2024 25.314 12.7133 24.8068 13.1206 24.4025C13.2168 24.3069 13.3072 24.2172 13.391 24.1336C13.607 23.9182 13.786 23.7368 13.9013 23.6077C13.9537 23.549 14.0156 23.4764 14.0572 23.4069C14.069 23.3873 14.0849 23.3585 14.0988 23.3233C14.1106 23.2933 14.1336 23.2275 14.1318 23.1422C14.1297 23.0432 14.091 22.9045 13.9631 22.8043C13.8529 22.718 13.737 22.7096 13.6857 22.7096H13.5967L13.5152 22.7447L13.515 22.7448L13.5133 22.7455L13.505 22.749C13.4974 22.7522 13.4854 22.7572 13.4695 22.7637C13.4376 22.7767 13.39 22.7958 13.3288 22.8192C13.2063 22.8662 13.0304 22.9303 12.8197 22.9977C12.3946 23.1338 11.8433 23.2785 11.308 23.3296C10.7583 23.3821 10.3018 23.3282 10.0059 23.1466C9.75521 22.9927 9.53793 22.6955 9.57577 22.0181C9.66862 20.356 9.26991 18.4576 8.77077 16.8056C8.26948 15.1466 7.65513 13.6984 7.28866 12.9227C6.78263 11.8515 6.91527 11.0004 7.23776 10.5089C7.56306 10.013 8.06874 9.86289 8.50391 10.0687C9.65149 10.6114 11.9319 12.0698 14.0915 13.7422C15.1679 14.5757 16.2038 15.4544 17.0457 16.2891C17.8962 17.1324 18.5166 17.8996 18.7999 18.5097C19.4523 19.9147 20.4504 20.7971 21.6597 20.8709C21.7525 20.8877 21.848 20.8965 21.9462 20.8965C22.1566 20.8965 22.3553 20.8558 22.5402 20.7829ZM22.2681 19.963C22.4587 19.8757 22.6495 19.7082 22.8195 19.4474C23.0837 19.0421 23.2612 18.4565 23.2612 17.7878C23.2612 17.119 23.0837 16.5334 22.8195 16.1281C22.5526 15.7187 22.2343 15.5391 21.9462 15.5391C21.658 15.5391 21.3397 15.7187 21.0728 16.1281C20.8086 16.5334 20.6311 17.119 20.6311 17.7878C20.6311 18.4565 20.8086 19.0421 21.0728 19.4474C21.287 19.776 21.5343 19.9566 21.7725 20.015C21.776 20.0151 21.7794 20.0152 21.7829 20.0153C21.9381 20.0188 22.1002 20.002 22.2681 19.963ZM22.162 27.5086C22.162 27.5083 22.1641 27.5105 22.1684 27.5161C22.1641 27.5117 22.162 27.5089 22.162 27.5086ZM31.1231 23.3522C31.1224 23.351 31.1226 23.3513 31.1235 23.3528L31.1231 23.3522Z" fill="white" stroke="white" stroke-width="0.5375"/>
</svg>
